<?xml version="1.0" encoding="UTF-8"?>
<svg width="41px" height="36px" viewBox="0 0 41 36" version="1.1" xmlns="http://www.w3.org/2000/svg" xmlns:xlink="http://www.w3.org/1999/xlink">
    <!-- Generator: sketchtool 51.3 (57544) - http://www.bohemiancoding.com/sketch -->
    <title>FEC202F0-DF0D-46F0-950D-A5970F124D98</title>
    <desc>Created with sketchtool.</desc>
    <defs></defs>
    <g id="Page-1" stroke="none" stroke-width="1" fill="none" fill-rule="evenodd">
        <g id="KAST-1440" transform="translate(-1345.000000, -651.000000)" fill="#FFFFFF">
            <g id="business-agenda" transform="translate(1345.000000, 651.000000)">
                <path d="M33.3466667,26.5846154 L33.3466667,21.4615385 C33.3466667,20.9076923 32.9366667,20.6307692 32.5266667,20.6307692 C31.98,20.6307692 31.7066667,21.0461538 31.7066667,21.4615385 L31.7066667,25.8923077 C31.2966667,26.0307692 31.0233333,26.3076923 30.8866667,26.7230769 L28.29,26.7230769 C27.7433333,26.7230769 27.47,27.1384615 27.47,27.5538462 C27.47,28.1076923 27.88,28.3846154 28.29,28.3846154 L31.4333333,28.3846154 C31.7066667,28.5230769 31.98,28.6615385 32.2533333,28.6615385 C33.0733333,28.6615385 33.7566667,27.9692308 33.7566667,27.1384615 C33.62,27.1384615 33.4833333,26.8615385 33.3466667,26.5846154 Z M35.1233333,4.56923077 C35.1233333,4.01538462 34.7133333,3.73846154 34.3033333,3.73846154 L29.93,3.73846154 L29.93,1.10769231 C29.93,0.553846154 29.52,0.276923077 29.11,0.276923077 L23.78,0.276923077 C23.2333333,0.276923077 22.96,0.692307692 22.96,1.10769231 L22.96,3.73846154 L12.3,3.73846154 L12.3,1.10769231 C12.3,0.553846154 11.89,0.276923077 11.48,0.276923077 L6.15,0.276923077 C5.60333333,0.276923077 5.33,0.692307692 5.33,1.10769231 L5.33,3.73846154 L0.82,3.73846154 C0.41,3.73846154 0,4.15384615 0,4.56923077 L0,10.8 L35.1233333,10.8 L35.1233333,4.56923077 Z M10.5233333,7.2 L6.97,7.2 L6.97,1.93846154 L10.5233333,1.93846154 L10.5233333,7.2 Z M28.0166667,7.2 L24.6,7.2 L24.6,1.93846154 L28.1533333,1.93846154 L28.1533333,7.2 L28.0166667,7.2 Z" id="Shape"></path>
                <path d="M35.1233333,17.5846154 L35.1233333,12.4615385 L0,12.4615385 L0,34.6153846 C0,35.1692308 0.41,35.4461538 0.82,35.4461538 L29.7933333,35.4461538 L29.93,35.4461538 C30.4766667,35.5846154 31.0233333,35.5846154 31.7066667,35.5846154 C36.9,35.5846154 41,31.2923077 41,26.1692308 C41,22.4307692 38.54,18.9692308 35.1233333,17.5846154 Z M26.3766667,16.2 L29.93,16.2 L29.93,17.1692308 C28.7,17.4461538 27.47,18 26.3766667,18.6923077 L26.3766667,16.2 Z M21.0466667,16.2 L24.6,16.2 L24.6,19.8 L21.0466667,19.8 L21.0466667,16.2 Z M8.74666667,30.3230769 L5.33,30.3230769 L5.33,26.7230769 L8.88333333,26.7230769 L8.88333333,30.3230769 L8.74666667,30.3230769 Z M8.74666667,25.0615385 L5.33,25.0615385 L5.33,21.4615385 L8.88333333,21.4615385 L8.88333333,25.0615385 L8.74666667,25.0615385 Z M8.74666667,19.6615385 L5.33,19.6615385 L5.33,16.0615385 L8.88333333,16.0615385 L8.88333333,19.6615385 L8.74666667,19.6615385 Z M14.0766667,30.3230769 L10.5233333,30.3230769 L10.5233333,26.7230769 L14.0766667,26.7230769 L14.0766667,30.3230769 Z M14.0766667,25.0615385 L10.5233333,25.0615385 L10.5233333,21.4615385 L14.0766667,21.4615385 L14.0766667,25.0615385 Z M14.0766667,19.6615385 L10.5233333,19.6615385 L10.5233333,16.0615385 L14.0766667,16.0615385 L14.0766667,19.6615385 Z M19.27,30.3230769 L15.7166667,30.3230769 L15.7166667,26.7230769 L19.27,26.7230769 L19.27,30.3230769 Z M19.27,25.0615385 L15.7166667,25.0615385 L15.7166667,21.4615385 L19.27,21.4615385 L19.27,25.0615385 Z M19.27,19.6615385 L15.7166667,19.6615385 L15.7166667,16.0615385 L19.27,16.0615385 L19.27,19.6615385 Z M21.0466667,30.3230769 L21.0466667,26.7230769 L22.4133333,26.7230769 C22.4133333,27.9692308 22.8233333,29.2153846 23.2333333,30.3230769 L21.0466667,30.3230769 Z M22.55,25.0615385 L21.0466667,25.0615385 L21.0466667,21.4615385 L23.78,21.4615385 C23.0966667,22.5692308 22.6866667,23.6769231 22.55,25.0615385 Z M31.7066667,34.0615385 C27.6066667,34.0615385 24.19,30.6 24.19,26.4461538 C24.19,22.2923077 27.6066667,18.8307692 31.7066667,18.8307692 C35.8066667,18.8307692 39.2233333,22.2923077 39.2233333,26.4461538 C39.2233333,30.6 35.8066667,34.0615385 31.7066667,34.0615385 Z" id="Shape"></path>
            </g>
        </g>
    </g>
</svg>